<svg class="main-svg" xmlns="http://www.w3.org/2000/svg" xmlns:xlink="http://www.w3.org/1999/xlink" width="900" height="500" style="" viewBox="0 0 900 500"><rect x="0" y="0" width="900" height="500" style="fill: rgb(255, 255, 255); fill-opacity: 1;"/><defs id="defs-1e592b"><g class="clips"><clipPath id="clip1e592bxyplot" class="plotclip"><rect width="740" height="320"/></clipPath><clipPath class="axesclip" id="clip1e592bx"><rect x="80" y="0" width="740" height="500"/></clipPath><clipPath class="axesclip" id="clip1e592by"><rect x="0" y="100" width="900" height="320"/></clipPath><clipPath class="axesclip" id="clip1e592bxy"><rect x="80" y="100" width="740" height="320"/></clipPath></g><g class="gradients"/><g class="patterns"/></defs><g class="bglayer"/><g class="layer-below"><g class="imagelayer"/><g class="shapelayer"/></g><g class="cartesianlayer"><g class="subplot xy"><g class="layer-subplot"><g class="shapelayer"/><g class="imagelayer"/></g><g class="gridlayer"><g class="x"/><g class="y"><path class="ygrid crisp" transform="translate(0,366.67)" d="M80,0h740" style="stroke: rgb(190, 190, 190); stroke-opacity: 1; stroke-width: 1px;"/><path class="ygrid crisp" transform="translate(0,313.33000000000004)" d="M80,0h740" style="stroke: rgb(190, 190, 190); stroke-opacity: 1; stroke-width: 1px;"/><path class="ygrid crisp" transform="translate(0,260)" d="M80,0h740" style="stroke: rgb(190, 190, 190); stroke-opacity: 1; stroke-width: 1px;"/><path class="ygrid crisp" transform="translate(0,206.67000000000002)" d="M80,0h740" style="stroke: rgb(190, 190, 190); stroke-opacity: 1; stroke-width: 1px;"/><path class="ygrid crisp" transform="translate(0,153.32999999999998)" d="M80,0h740" style="stroke: rgb(190, 190, 190); stroke-opacity: 1; stroke-width: 1px;"/></g></g><g class="zerolinelayer"/><path class="xlines-below"/><path class="ylines-below"/><g class="overlines-below"/><g class="xaxislayer-below"/><g class="yaxislayer-below"/><g class="overaxes-below"/><g class="plot" transform="translate(80,100)" clip-path="url(#clip1e592bxyplot)"><g class="scatterlayer mlayer"><g class="trace scatter trace77cca6" style="stroke-miterlimit: 2; opacity: 1;"><g class="fills"/><g class="errorbars"/><g class="lines"><path class="js-line" d="M253.71,253.33L259,242.67L264.29,242.67L274.86,232L280.14,229.33L285.43,226.67L290.71,226.67L296,232L301.29,229.33L306.57,240L311.86,242.67L322.43,242.67L327.71,245.33L333,234.67L338.29,213.33L343.57,186.67L348.86,165.33L354.14,178.67L359.43,178.67L364.71,208L370,277.33L375.29,290.67L380.57,277.33L385.86,266.67L391.14,253.33L401.71,226.67L407,221.33L412.29,218.67L417.57,232L428.14,210.67L433.43,205.33L438.71,197.33L444,194.67L449.29,192L454.57,194.67L465.14,184L470.43,181.33L475.71,176L481,165.33L491.57,160L496.86,154.67L502.14,146.67L507.43,144L512.71,146.67L518,133.33L523.29,136L528.57,144L533.86,138.67L539.14,136L544.43,133.33L549.71,128L555,130.67L560.29,130.67L565.57,133.33L570.86,128L576.14,133.33L581.43,133.33L586.71,133.33L592,138.67L597.29,149.33L602.57,154.67L613.14,149.33L618.43,157.33L623.71,165.33L629,162.67L634.29,170.67L639.57,176L644.86,168L650.14,149.33L655.43,144L660.71,146.67L666,152L671.29,192L676.57,197.33L681.86,197.33" style="vector-effect: non-scaling-stroke; fill: none; stroke: rgb(190, 190, 190); stroke-opacity: 1; stroke-width: 1px; opacity: 1;"/></g><g class="points"/><g class="text"/></g><g class="trace scatter trace996a66" style="stroke-miterlimit: 2; opacity: 1;"><g class="fills"/><g class="errorbars"/><g class="lines"><path class="js-line" d="M237.86,293.33L243.14,290.67L248.43,296L264.29,288L269.57,282.67L280.14,272L285.43,264L290.71,266.67L296,274.67L301.29,282.67L306.57,277.33L311.86,272L317.14,269.33L322.43,266.67L327.71,258.67L333,256L338.29,256L343.57,250.67L348.86,242.67L354.14,232L359.43,224L364.71,221.33L370,200L375.29,194.67L380.57,194.67L391.14,189.33L396.43,189.33L401.71,202.67L407,189.33L412.29,168L417.57,165.33L422.86,90.67L428.14,85.33L433.43,72L438.71,61.33L444,56L449.29,58.67L454.57,48L459.86,40L465.14,40L470.43,42.67L475.71,34.67L481,32L486.29,37.33L491.57,45.33L496.86,50.67L502.14,40L507.43,40L512.71,37.33L518,32L523.29,34.67L528.57,37.33L533.86,29.33L539.14,34.67L544.43,42.67L549.71,40L555,45.33L560.29,45.33L565.57,42.67L570.86,61.33L576.14,64L581.43,77.33L586.71,88L592,98.67L597.29,106.67L602.57,125.33L607.86,133.33L613.14,152L618.43,149.33L623.71,160L629,144L634.29,162.67L639.57,154.67L644.86,165.33L650.14,165.33L655.43,168L660.71,178.67L666,186.67L671.29,202.67L681.86,213.33L687.14,221.33L692.43,229.33L697.71,234.67L703,240L708.29,237.33L713.57,226.67" style="vector-effect: non-scaling-stroke; fill: none; stroke: rgb(190, 190, 190); stroke-opacity: 1; stroke-width: 1px; opacity: 1;"/></g><g class="points"/><g class="text"/></g><g class="trace scatter tracee9f162" style="stroke-miterlimit: 2; opacity: 1;"><g class="fills"/><g class="errorbars"/><g class="lines"><path class="js-line" d="M0,317.33L105.71,317.33L132.14,314.67L163.86,314.67L169.14,312L185,312" style="vector-effect: non-scaling-stroke; fill: none; stroke: rgb(24, 161, 205); stroke-opacity: 1; stroke-width: 2px; opacity: 1;"/><path class="js-line" d="M253.71,301.33L259,296" style="vector-effect: non-scaling-stroke; fill: none; stroke: rgb(24, 161, 205); stroke-opacity: 1; stroke-width: 2px; opacity: 1;"/><path class="js-line" d="M301.29,277.33L306.57,277.33L311.86,280L317.14,282.67L322.43,280L327.71,277.33L333,277.33L338.29,272L343.57,274.67L348.86,282.67L354.14,293.33L364.71,298.67L370,288L375.29,277.33L380.57,264L385.86,258.67L391.14,256L396.43,202.67L401.71,202.67L407,200L412.29,202.67L422.86,197.33L428.14,192L433.43,184L438.71,181.33L444,189.33L449.29,186.67L454.57,186.67L459.86,184L470.43,184L475.71,178.67L481,178.67L486.29,170.67L496.86,170.67L502.14,165.33L507.43,162.67L512.71,168L528.57,152L533.86,157.33L539.14,152L544.43,157.33L549.71,154.67L555,157.33L560.29,160L565.57,160L570.86,157.33L576.14,157.33L581.43,149.33L586.71,154.67L597.29,160L602.57,160L607.86,162.67L613.14,160L618.43,162.67L623.71,168L629,170.67L634.29,176L639.57,176L644.86,181.33L655.43,181.33L660.71,184L666,181.33L671.29,189.33L676.57,205.33L681.86,226.67L697.71,226.67L703,229.33L708.29,226.67L713.57,226.67" style="vector-effect: non-scaling-stroke; fill: none; stroke: rgb(24, 161, 205); stroke-opacity: 1; stroke-width: 2px; opacity: 1;"/></g><g class="points"/><g class="text"/></g><g class="trace scatter traceb6f04e" style="stroke-miterlimit: 2; opacity: 1;"><g class="fills"/><g class="errorbars"/><g class="lines"><path class="js-line" d="M163.86,314.67L174.43,309.33L179.71,309.33L195.57,301.33L200.86,301.33" style="vector-effect: non-scaling-stroke; fill: none; stroke: rgb(21, 96, 122); stroke-opacity: 1; stroke-width: 2px; opacity: 1;"/><path class="js-line" d="M264.29,274.67L269.57,277.33L274.86,272L285.43,272L290.71,277.33L296,280L301.29,258.67L306.57,258.67L311.86,253.33L317.14,253.33L322.43,250.67L327.71,245.33L333,234.67" style="vector-effect: non-scaling-stroke; fill: none; stroke: rgb(21, 96, 122); stroke-opacity: 1; stroke-width: 2px; opacity: 1;"/><path class="js-line" d="M396.43,248L401.71,237.33L407,237.33L417.57,226.67L422.86,218.67L428.14,213.33L433.43,202.67L438.71,202.67L444,194.67L449.29,184L454.57,176L459.86,178.67L465.14,176L475.71,160L481,154.67L486.29,157.33L491.57,146.67L502.14,130.67L507.43,120L512.71,120L518,125.33L523.29,120L528.57,125.33L533.86,117.33L539.14,133.33L544.43,125.33L549.71,122.67L560.29,117.33L565.57,136L570.86,128L576.14,130.67L581.43,128L586.71,133.33L592,133.33L597.29,136L602.57,133.33" style="vector-effect: non-scaling-stroke; fill: none; stroke: rgb(21, 96, 122); stroke-opacity: 1; stroke-width: 2px; opacity: 1;"/><path class="js-line" d="M613.14,144L618.43,157.33L623.71,162.67L629,160L634.29,160L639.57,160L644.86,157.33L650.14,157.33L655.43,149.33L660.71,157.33L666,154.67L671.29,152L676.57,162.67L681.86,181.33L687.14,186.67L692.43,200L697.71,202.67L703,208L708.29,205.33L713.57,208L718.86,202.67L724.14,208L729.43,210.67L734.71,210.67L740,208" style="vector-effect: non-scaling-stroke; fill: none; stroke: rgb(21, 96, 122); stroke-opacity: 1; stroke-width: 2px; opacity: 1;"/></g><g class="points"/><g class="text"/></g><g class="trace scatter trace461120" style="stroke-miterlimit: 2; opacity: 1;"><g class="fills"/><g class="errorbars"/><g class="lines"><path class="js-line" d="M237.86,277.33L248.43,272L253.71,266.67L259,264L264.29,266.67L269.57,266.67L274.86,264L280.14,261.33L285.43,261.33L290.71,266.67L296,266.67L317.14,256L322.43,256L327.71,253.33L333,253.33L338.29,242.67L343.57,237.33L348.86,237.33L354.14,234.67L359.43,234.67L364.71,248L370,296L375.29,296L380.57,293.33L385.86,269.33L391.14,245.33L396.43,232L401.71,221.33L407,216L412.29,205.33L417.57,200L422.86,200L428.14,202.67L438.71,197.33L444,192L449.29,184L454.57,170.67L459.86,168L465.14,162.67L470.43,154.67L475.71,149.33L486.29,133.33L491.57,133.33L496.86,120L502.14,112L512.71,90.67L518,82.67L523.29,66.67L528.57,66.67L533.86,69.33L539.14,61.33L544.43,64L549.71,64L555,69.33L560.29,66.67L576.14,74.67L581.43,80L586.71,85.33L592,88L597.29,90.67L602.57,90.67L607.86,85.33L613.14,82.67L618.43,85.33L623.71,85.33L634.29,85.33L639.57,77.33L644.86,93.33L650.14,88L671.29,109.33L676.57,117.33L687.14,128L692.43,138.67L708.29,162.67L713.57,178.67L718.86,189.33L724.14,189.33L729.43,189.33L734.71,200L740,197.33" style="vector-effect: non-scaling-stroke; fill: none; stroke: rgb(190, 190, 190); stroke-opacity: 1; stroke-width: 1px; opacity: 1;"/></g><g class="points"/><g class="text"/></g><g class="trace scatter trace2df26e" style="stroke-miterlimit: 2; opacity: 1;"><g class="fills"/><g class="errorbars"/><g class="lines"><path class="js-line" d="M253.71,290.67L259,282.67L264.29,290.67L269.57,285.33L274.86,282.67L280.14,282.67L285.43,277.33L290.71,272L296,274.67L306.57,269.33L311.86,272L317.14,269.33L322.43,272L327.71,269.33L333,264L338.29,258.67" style="vector-effect: non-scaling-stroke; fill: none; stroke: rgb(190, 190, 190); stroke-opacity: 1; stroke-width: 1px; opacity: 1;"/><path class="js-line" d="M375.29,282.67L380.57,261.33L385.86,264L391.14,256L396.43,237.33L401.71,234.67L407,224L412.29,218.67L417.57,208L422.86,205.33L428.14,194.67L433.43,192L438.71,197.33L444,197.33L449.29,125.33L454.57,120L459.86,122.67L465.14,117.33L470.43,136L475.71,96L481,138.67L486.29,114.67L491.57,96L496.86,114.67L502.14,98.67L507.43,96L512.71,74.67L518,61.33L523.29,56L528.57,56L533.86,64L539.14,32L544.43,61.33L549.71,42.67L555,74.67L560.29,85.33L565.57,77.33L570.86,58.67L576.14,106.67L581.43,106.67L586.71,109.33L592,117.33L597.29,120L602.57,120L607.86,117.33L613.14,106.67L618.43,125.33L623.71,144L629,138.67L634.29,138.67L639.57,154.67L644.86,146.67L650.14,144L655.43,149.33L660.71,149.33L666,160L671.29,152L676.57,154.67L681.86,170.67L687.14,184L692.43,184L697.71,178.67L703,184L708.29,197.33L713.57,200L718.86,280L724.14,280" style="vector-effect: non-scaling-stroke; fill: none; stroke: rgb(190, 190, 190); stroke-opacity: 1; stroke-width: 1px; opacity: 1;"/></g><g class="points"/><g class="text"/></g><g class="trace scatter trace71271c" style="stroke-miterlimit: 2; opacity: 1;"><g class="fills"/><g class="errorbars"/><g class="lines"><path class="js-line" d="M237.86,277.33L243.14,288L248.43,285.33L253.71,280L259,277.33L264.29,272L269.57,272L280.14,272L285.43,269.33L290.71,277.33L296,288L301.29,293.33L306.57,293.33L311.86,290.67L317.14,282.67L322.43,274.67L327.71,269.33L333,264L338.29,264L343.57,269.33L348.86,266.67L354.14,258.67L359.43,258.67L364.71,253.33L370,250.67L380.57,205.33L385.86,229.33L391.14,229.33L396.43,117.33L401.71,106.67L407,114.67L412.29,114.67L417.57,106.67L422.86,101.33L428.14,114.67L433.43,104L438.71,120L444,125.33L449.29,101.33L454.57,101.33L459.86,104L465.14,96L470.43,101.33L475.71,104L481,90.67L486.29,98.67L491.57,101.33L496.86,101.33L502.14,98.67L507.43,101.33L512.71,98.67L523.29,98.67L528.57,90.67L533.86,96L539.14,93.33L544.43,98.67L549.71,109.33L555,114.67L560.29,112L565.57,117.33L570.86,120L576.14,120L581.43,141.33L586.71,154.67L592,154.67L597.29,152L602.57,184L607.86,178.67L613.14,194.67L618.43,208L623.71,208L629,213.33L634.29,213.33L639.57,208L644.86,210.67L650.14,213.33L655.43,218.67L660.71,216L666,229.33L671.29,226.67L676.57,237.33L681.86,237.33L687.14,232L692.43,234.67L697.71,234.67L703,232L708.29,237.33" style="vector-effect: non-scaling-stroke; fill: none; stroke: rgb(190, 190, 190); stroke-opacity: 1; stroke-width: 1px; opacity: 1;"/></g><g class="points"/><g class="text"/></g><g class="trace scatter trace1d01de" style="stroke-miterlimit: 2; opacity: 1;"><g class="fills"/><g class="errorbars"/><g class="lines"><path class="js-line" d="M237.86,293.33L243.14,293.33L248.43,290.67L253.71,288L259,290.67L269.57,296L274.86,293.33L280.14,288L285.43,285.33L290.71,282.67L296,285.33L301.29,282.67L306.57,285.33L317.14,290.67" style="vector-effect: non-scaling-stroke; fill: none; stroke: rgb(190, 190, 190); stroke-opacity: 1; stroke-width: 1px; opacity: 1;"/><path class="js-line" d="M343.57,293.33L348.86,290.67L354.14,290.67L359.43,285.33L364.71,285.33L370,285.33L375.29,282.67L380.57,280L385.86,285.33L391.14,282.67L396.43,288L401.71,285.33L407,280L412.29,274.67L417.57,272L422.86,266.67L428.14,269.33L433.43,218.67L438.71,205.33L444,208L449.29,208L454.57,200L459.86,197.33L465.14,194.67L470.43,189.33L475.71,178.67L481,176L486.29,170.67L491.57,168L496.86,168L502.14,165.33L507.43,162.67L512.71,157.33L518,149.33L523.29,138.67L528.57,149.33L533.86,141.33L539.14,133.33L544.43,146.67L549.71,128L555,133.33L560.29,149.33L565.57,141.33L570.86,141.33L576.14,136L581.43,125.33L586.71,130.67L592,128L597.29,136L602.57,133.33L607.86,128L613.14,125.33L618.43,136L623.71,152L629,138.67L634.29,152L639.57,160L644.86,144L650.14,125.33L655.43,130.67L660.71,130.67L666,128L671.29,130.67L676.57,130.67L681.86,128L697.71,144L703,141.33L713.57,173.33" style="vector-effect: non-scaling-stroke; fill: none; stroke: rgb(190, 190, 190); stroke-opacity: 1; stroke-width: 1px; opacity: 1;"/></g><g class="points"/><g class="text"/></g><g class="trace scatter traceb79730" style="stroke-miterlimit: 2; opacity: 1;"><g class="fills"/><g class="errorbars"/><g class="lines"><path class="js-line" d="M237.86,293.33L243.14,296L248.43,301.33L269.57,301.33L274.86,298.67L296,288L301.29,288L306.57,290.67L311.86,290.67L317.14,293.33L322.43,293.33L333,293.33L338.29,290.67L343.57,290.67L348.86,288L364.71,288L370,285.33L380.57,269.33L385.86,266.67L391.14,266.67L396.43,253.33L401.71,253.33L407,242.67L417.57,242.67L422.86,240L433.43,234.67L438.71,234.67L444,232L449.29,226.67L454.57,221.33L459.86,218.67L465.14,216L470.43,216L475.71,213.33L481,208L486.29,208L491.57,200L496.86,194.67L502.14,194.67L507.43,197.33L512.71,184L518,208L523.29,189.33L528.57,184L533.86,181.33L539.14,189.33L544.43,184L555,184L560.29,189.33L565.57,184L570.86,189.33L576.14,186.67L581.43,189.33L592,194.67L597.29,194.67L607.86,200L613.14,200L618.43,197.33L623.71,218.67L634.29,229.33L639.57,226.67L644.86,250.67L650.14,253.33L655.43,245.33L660.71,242.67L666,242.67L671.29,240L692.43,250.67" style="vector-effect: non-scaling-stroke; fill: none; stroke: rgb(190, 190, 190); stroke-opacity: 1; stroke-width: 1px; opacity: 1;"/></g><g class="points"/><g class="text"/></g><g class="trace scatter tracef01e25" style="stroke-miterlimit: 2; opacity: 1;"><g class="fills"/><g class="errorbars"/><g class="lines"><path class="js-line" d="M311.86,280L327.71,280L333,269.33L343.57,269.33L348.86,258.67L354.14,261.33L359.43,250.67L364.71,245.33L370,234.67L375.29,226.67L380.57,213.33L385.86,216L391.14,213.33L396.43,210.67L401.71,205.33L407,194.67L412.29,197.33L417.57,197.33L422.86,192L428.14,184L433.43,178.67L438.71,165.33L444,162.67L454.57,128L459.86,117.33L465.14,117.33L470.43,128L475.71,93.33L481,141.33L486.29,114.67L491.57,104L496.86,80L502.14,66.67L507.43,45.33L512.71,34.67L518,72L523.29,74.67L528.57,90.67L533.86,93.33L539.14,85.33L544.43,93.33L549.71,101.33L555,98.67L560.29,96L565.57,96L570.86,93.33L576.14,96L581.43,104L586.71,104L597.29,109.33L602.57,109.33L607.86,112L613.14,112L618.43,101.33L623.71,117.33L629,122.67L634.29,125.33L639.57,128L644.86,133.33L650.14,130.67L655.43,138.67L660.71,141.33L666,146.67L671.29,146.67L676.57,144L681.86,149.33L687.14,168L692.43,165.33L697.71,176L703,168L708.29,170.67" style="vector-effect: non-scaling-stroke; fill: none; stroke: rgb(190, 190, 190); stroke-opacity: 1; stroke-width: 1px; opacity: 1;"/></g><g class="points"/><g class="text"/></g><g class="trace scatter trace37e89f" style="stroke-miterlimit: 2; opacity: 1;"><g class="fills"/><g class="errorbars"/><g class="lines"><path class="js-line" d="M158.57,290.67L163.86,290.67L169.14,288L174.43,285.33L179.71,285.33L185,282.67L190.29,277.33L206.14,269.33L211.43,261.33L216.71,264L222,261.33L227.29,258.67L232.57,237.33L237.86,240L243.14,245.33L248.43,248L253.71,248L259,245.33L264.29,240L269.57,240L274.86,234.67L280.14,226.67L285.43,221.33L290.71,216L296,216L301.29,210.67L306.57,208L311.86,202.67L317.14,194.67L322.43,189.33L327.71,181.33L333,173.33L338.29,168L343.57,170.67L348.86,154.67L354.14,146.67L359.43,146.67L364.71,146.67L370,128L375.29,117.33L380.57,141.33L385.86,146.67L391.14,149.33L396.43,146.67L401.71,138.67L407,133.33L412.29,133.33L417.57,125.33L422.86,120L428.14,120L433.43,114.67L438.71,112L444,106.67L449.29,98.67L454.57,96L459.86,104L465.14,98.67L470.43,98.67L475.71,104L481,96L486.29,93.33L491.57,90.67L496.86,85.33L502.14,80L507.43,93.33L512.71,77.33L518,66.67L523.29,69.33L528.57,74.67L533.86,80L539.14,88L544.43,90.67L549.71,96L555,104L560.29,120L565.57,136L570.86,136L576.14,144L581.43,146.67L586.71,152L592,152L597.29,154.67L602.57,152L607.86,146.67L613.14,154.67L618.43,162.67L623.71,168L629,170.67L634.29,168L639.57,168L644.86,170.67L650.14,170.67L655.43,165.33L676.57,176L681.86,181.33L687.14,184L692.43,189.33L708.29,205.33L713.57,213.33L718.86,226.67L724.14,229.33L734.71,240" style="vector-effect: non-scaling-stroke; fill: none; stroke: rgb(190, 190, 190); stroke-opacity: 1; stroke-width: 1px; opacity: 1;"/></g><g class="points"/><g class="text"/></g><g class="trace scatter trace1af933" style="stroke-miterlimit: 2; opacity: 1;"><g class="fills"/><g class="errorbars"/><g class="lines"><path class="js-line" d="M132.14,317.33L148,317.33L153.29,314.67L174.43,314.67L179.71,312L185,309.33L190.29,309.33L200.86,304L206.14,304L211.43,301.33L216.71,293.33L222,282.67L227.29,274.67L232.57,272L237.86,274.67L243.14,269.33L248.43,269.33L253.71,258.67L259,253.33L264.29,248L269.57,240L274.86,218.67L280.14,213.33L285.43,205.33L290.71,205.33L296,205.33L301.29,202.67L306.57,192L311.86,178.67L317.14,168L322.43,160L327.71,160L333,157.33L343.57,146.67L348.86,138.67L354.14,122.67L359.43,112L364.71,133.33L370,104L375.29,82.67L380.57,77.33L385.86,72L391.14,72L396.43,72L401.71,58.67L407,53.33L412.29,61.33L417.57,74.67L422.86,69.33L428.14,69.33L433.43,61.33L438.71,48L444,40L449.29,34.67L454.57,26.67L459.86,29.33L465.14,26.67L470.43,37.33L475.71,34.67L486.29,34.67L491.57,42.67L496.86,53.33L502.14,48L507.43,56L512.71,48L518,34.67L523.29,37.33L528.57,42.67L533.86,45.33L539.14,48L544.43,53.33L549.71,56L555,56L560.29,56L565.57,61.33L570.86,77.33L576.14,80L586.71,90.67L592,98.67L597.29,104L602.57,117.33L607.86,122.67L613.14,130.67L618.43,136L623.71,144L629,144L634.29,146.67L644.86,152L650.14,160L660.71,176L666,178.67L687.14,200L692.43,200L697.71,208L703,213.33L708.29,221.33L713.57,224L718.86,226.67L724.14,226.67L729.43,232L734.71,234.67" style="vector-effect: non-scaling-stroke; fill: none; stroke: rgb(199, 30, 29); stroke-opacity: 1; stroke-width: 4px; opacity: 1;"/></g><g class="points"/><g class="text"/></g></g></g><g class="overplot"/><path class="xlines-above crisp" d="M80,420.5H820" style="fill: none; stroke-width: 1px; stroke: rgb(0, 0, 0); stroke-opacity: 1;"/><path class="ylines-above crisp" d="M0,0" style="fill: none;"/><g class="overlines-above"/><g class="xaxislayer-above"><path class="xtick ticks crisp" d="M0,421v5" transform="translate(106.43,0)" style="stroke: rgb(68, 68, 68); stroke-opacity: 1; stroke-width: 1px;"/><path class="xtick ticks crisp" d="M0,421v5" transform="translate(212.14,0)" style="stroke: rgb(68, 68, 68); stroke-opacity: 1; stroke-width: 1px;"/><path class="xtick ticks crisp" d="M0,421v5" transform="translate(317.86,0)" style="stroke: rgb(68, 68, 68); stroke-opacity: 1; stroke-width: 1px;"/><path class="xtick ticks crisp" d="M0,421v5" transform="translate(423.57,0)" style="stroke: rgb(68, 68, 68); stroke-opacity: 1; stroke-width: 1px;"/><path class="xtick ticks crisp" d="M0,421v5" transform="translate(529.29,0)" style="stroke: rgb(68, 68, 68); stroke-opacity: 1; stroke-width: 1px;"/><path class="xtick ticks crisp" d="M0,421v5" transform="translate(635,0)" style="stroke: rgb(68, 68, 68); stroke-opacity: 1; stroke-width: 1px;"/><path class="xtick ticks crisp" d="M0,421v5" transform="translate(740.71,0)" style="stroke: rgb(68, 68, 68); stroke-opacity: 1; stroke-width: 1px;"/><g class="xtick"><text text-anchor="middle" x="0" y="442.8" transform="translate(106.43,0)" style="font-family: Arial; font-size: 14px; fill: rgb(82, 82, 82); fill-opacity: 1; white-space: pre; opacity: 1;">1880</text></g><g class="xtick"><text text-anchor="middle" x="0" y="442.8" style="font-family: Arial; font-size: 14px; fill: rgb(82, 82, 82); fill-opacity: 1; white-space: pre; opacity: 1;" transform="translate(212.14,0)">1900</text></g><g class="xtick"><text text-anchor="middle" x="0" y="442.8" style="font-family: Arial; font-size: 14px; fill: rgb(82, 82, 82); fill-opacity: 1; white-space: pre; opacity: 1;" transform="translate(317.86,0)">1920</text></g><g class="xtick"><text text-anchor="middle" x="0" y="442.8" style="font-family: Arial; font-size: 14px; fill: rgb(82, 82, 82); fill-opacity: 1; white-space: pre; opacity: 1;" transform="translate(423.57,0)">1940</text></g><g class="xtick"><text text-anchor="middle" x="0" y="442.8" style="font-family: Arial; font-size: 14px; fill: rgb(82, 82, 82); fill-opacity: 1; white-space: pre; opacity: 1;" transform="translate(529.29,0)">1960</text></g><g class="xtick"><text text-anchor="middle" x="0" y="442.8" style="font-family: Arial; font-size: 14px; fill: rgb(82, 82, 82); fill-opacity: 1; white-space: pre; opacity: 1;" transform="translate(635,0)">1980</text></g><g class="xtick"><text text-anchor="middle" x="0" y="442.8" style="font-family: Arial; font-size: 14px; fill: rgb(82, 82, 82); fill-opacity: 1; white-space: pre; opacity: 1;" transform="translate(740.71,0)">2000</text></g></g><g class="yaxislayer-above"><g class="ytick"><text text-anchor="end" x="79" y="4.8999999999999995" transform="translate(0,420)" style="font-family: Arial; font-size: 14px; fill: rgb(120, 120, 120); fill-opacity: 1; white-space: pre; opacity: 1;">0</text></g><g class="ytick"><text text-anchor="end" x="79" y="4.8999999999999995" style="font-family: Arial; font-size: 14px; fill: rgb(120, 120, 120); fill-opacity: 1; white-space: pre; opacity: 1;" transform="translate(0,366.67)">2</text></g><g class="ytick"><text text-anchor="end" x="79" y="4.8999999999999995" style="font-family: Arial; font-size: 14px; fill: rgb(120, 120, 120); fill-opacity: 1; white-space: pre; opacity: 1;" transform="translate(0,313.33000000000004)">4</text></g><g class="ytick"><text text-anchor="end" x="79" y="4.8999999999999995" style="font-family: Arial; font-size: 14px; fill: rgb(120, 120, 120); fill-opacity: 1; white-space: pre; opacity: 1;" transform="translate(0,260)">6</text></g><g class="ytick"><text text-anchor="end" x="79" y="4.8999999999999995" style="font-family: Arial; font-size: 14px; fill: rgb(120, 120, 120); fill-opacity: 1; white-space: pre; opacity: 1;" transform="translate(0,206.67000000000002)">8</text></g><g class="ytick"><text text-anchor="end" x="79" y="4.8999999999999995" style="font-family: Arial; font-size: 14px; fill: rgb(120, 120, 120); fill-opacity: 1; white-space: pre; opacity: 1;" transform="translate(0,153.32999999999998)">10</text></g></g><g class="overaxes-above"/></g></g><g class="polarlayer"/><g class="ternarylayer"/><g class="geolayer"/><g class="funnelarealayer"/><g class="pielayer"/><g class="iciclelayer"/><g class="treemaplayer"/><g class="sunburstlayer"/><g class="glimages"/><defs id="topdefs-1e592b"><g class="clips"><clipPath class="annclip" id="clip1e592b_ann0"><rect x="2" y="2" width="110" height="34.203125"/></clipPath></g></defs><g class="layer-above"><g class="imagelayer"/><g class="shapelayer"/></g><g class="infolayer"><g class="g-gtitle"/><g class="g-xtitle"/><g class="g-ytitle"/><g class="annotation" data-index="0" style="opacity: 1;"><g class="annotation-text-g" transform="rotate(0,137.74,167)"><g class="cursor-pointer" transform="translate(81,148)"><rect class="bg" x="0.5" y="0.5" width="113" height="37" style="stroke-width: 1px; stroke: rgb(0, 0, 0); stroke-opacity: 0; fill: rgb(255, 255, 255); fill-opacity: 1;"/><text class="annotation-text" text-anchor="start" x="2" y="15" style="font-family: Arial; font-size: 14px; fill: rgb(100, 100, 100); fill-opacity: 1; white-space: pre;" clip-path="url(#clip1e592b_ann0)"><tspan class="line" dy="0em" x="2" y="15">sold cigarettes</tspan><tspan class="line" dy="1.3em" x="2" y="15">per day per adult</tspan></text></g></g></g></g></svg>